<svg xmlns="http://www.w3.org/2000/svg" width="860" height="420" viewBox="0 0 860 420" role="img" aria-labelledby="title desc">
  <title id="title">Day 7 Agent Handoff</title>
  <desc id="desc">Specialists work in parallel with one final owner</desc>
  <rect width="860" height="420" rx="24" fill="#f8fafc"/>
  <rect x="24" y="24" width="812" height="372" rx="22" fill="#fff" stroke="#e5e7eb"/>
  <path d="M24 116h812" stroke="#f1f5f9"/>
  <circle cx="58" cy="70" r="7" fill="#ef4444"/>
  <circle cx="82" cy="70" r="7" fill="#f59e0b"/>
  <circle cx="106" cy="70" r="7" fill="#10b981"/>
  <text x="136" y="76" font-size="15" fill="#64748b" font-family="ui-monospace, SFMono-Regular, Menlo, monospace">hermesagent.sbs bootcamp</text>
  <text x="48" y="168" font-size="34" font-weight="800" fill="#111827">Day 7 Agent Handoff</text>
  <text x="48" y="204" font-size="17" fill="#475569">Specialists work in parallel with one final owner</text>
  <rect x="654" y="144" width="138" height="38" rx="19" fill="#ecfdf5" stroke="#bbf7d0"/>
  <text x="723" y="169" text-anchor="middle" font-size="14" font-weight="700" fill="#047857">reviewable</text>
  <g>
  <rect x="48" y="245" width="170" height="86" rx="10" fill="#ffffff" stroke="#e5e7eb"/>
  <circle cx="78" cy="288" r="17" fill="#fef3c7" stroke="#f59e0b"/>
  <text x="78" y="294" text-anchor="middle" font-size="15" font-weight="700" fill="#92400e">1</text>
  <text x="106" y="294" font-size="15" font-weight="700" fill="#111827">Plan</text>
</g>
<path d="M222 287h10" stroke="#d97706" stroke-width="3" stroke-linecap="round"/><path d="M226 281l8 6-8 6" fill="none" stroke="#d97706" stroke-width="3" stroke-linecap="round" stroke-linejoin="round"/>
<g>
  <rect x="236" y="245" width="170" height="86" rx="10" fill="#ffffff" stroke="#e5e7eb"/>
  <circle cx="266" cy="288" r="17" fill="#fef3c7" stroke="#f59e0b"/>
  <text x="266" y="294" text-anchor="middle" font-size="15" font-weight="700" fill="#92400e">2</text>
  <text x="294" y="294" font-size="15" font-weight="700" fill="#111827">Delegate</text>
</g>
<path d="M410 287h10" stroke="#d97706" stroke-width="3" stroke-linecap="round"/><path d="M414 281l8 6-8 6" fill="none" stroke="#d97706" stroke-width="3" stroke-linecap="round" stroke-linejoin="round"/>
<g>
  <rect x="424" y="245" width="170" height="86" rx="10" fill="#ffffff" stroke="#e5e7eb"/>
  <circle cx="454" cy="288" r="17" fill="#fef3c7" stroke="#f59e0b"/>
  <text x="454" y="294" text-anchor="middle" font-size="15" font-weight="700" fill="#92400e">3</text>
  <text x="482" y="294" font-size="15" font-weight="700" fill="#111827">Compare</text>
</g>
<path d="M598 287h10" stroke="#d97706" stroke-width="3" stroke-linecap="round"/><path d="M602 281l8 6-8 6" fill="none" stroke="#d97706" stroke-width="3" stroke-linecap="round" stroke-linejoin="round"/>
<g>
  <rect x="612" y="245" width="170" height="86" rx="10" fill="#ffffff" stroke="#e5e7eb"/>
  <circle cx="642" cy="288" r="17" fill="#fef3c7" stroke="#f59e0b"/>
  <text x="642" y="294" text-anchor="middle" font-size="15" font-weight="700" fill="#92400e">4</text>
  <text x="670" y="294" font-size="15" font-weight="700" fill="#111827">Synthesize</text>
</g>
</svg>
